<svg xmlns="http://www.w3.org/2000/svg" xmlns:xlink="http://www.w3.org/1999/xlink" width="500" zoomAndPan="magnify" viewBox="0 0 375 374.999991" height="500" preserveAspectRatio="xMidYMid meet" version="1.0"><defs><clipPath id="ed7d86bfbf"><path d="M 43.363281 18.617188 L 321.75 18.617188 L 321.75 357 L 43.363281 357 Z M 43.363281 18.617188 " clip-rule="nonzero"/></clipPath><clipPath id="caf17daab7"><path d="M 53.304688 317.199219 L 83.125 317.199219 L 83.125 347.019531 C 83.125 347.675781 83.191406 348.320312 83.316406 348.960938 C 83.445312 349.601562 83.632812 350.222656 83.882812 350.824219 C 84.132812 351.429688 84.441406 352 84.800781 352.542969 C 85.164062 353.085938 85.578125 353.589844 86.039062 354.050781 C 86.5 354.511719 87.003906 354.921875 87.542969 355.285156 C 88.085938 355.648438 88.660156 355.957031 89.261719 356.207031 C 89.867188 356.453125 90.488281 356.644531 91.128906 356.769531 C 91.769531 356.898438 92.414062 356.960938 93.066406 356.960938 L 311.757812 356.960938 C 312.410156 356.960938 313.058594 356.898438 313.699219 356.769531 C 314.339844 356.644531 314.960938 356.453125 315.5625 356.207031 C 316.164062 355.957031 316.738281 355.648438 317.28125 355.285156 C 317.824219 354.925781 318.328125 354.511719 318.789062 354.050781 C 319.25 353.589844 319.660156 353.085938 320.023438 352.542969 C 320.386719 352 320.691406 351.429688 320.941406 350.824219 C 321.191406 350.222656 321.382812 349.601562 321.507812 348.960938 C 321.636719 348.320312 321.699219 347.675781 321.699219 347.019531 L 321.699219 68.6875 C 321.699219 68.035156 321.636719 67.386719 321.507812 66.746094 C 321.382812 66.105469 321.191406 65.484375 320.941406 64.882812 C 320.691406 64.28125 320.386719 63.707031 320.023438 63.164062 C 319.660156 62.621094 319.25 62.121094 318.789062 61.65625 C 318.328125 61.195312 317.824219 60.785156 317.28125 60.421875 C 316.738281 60.058594 316.164062 59.753906 315.5625 59.503906 C 314.960938 59.253906 314.339844 59.0625 313.699219 58.9375 C 313.058594 58.808594 312.410156 58.746094 311.757812 58.746094 L 256.289062 58.746094 L 219.3125 21.964844 C 218.140625 20.550781 216.683594 19.558594 214.9375 18.984375 L 53.304688 18.984375 C 52.652344 18.984375 52.007812 19.046875 51.367188 19.175781 C 50.726562 19.300781 50.105469 19.492188 49.5 19.742188 C 48.898438 19.992188 48.324219 20.296875 47.78125 20.660156 C 47.238281 21.023438 46.738281 21.433594 46.277344 21.894531 C 45.816406 22.355469 45.402344 22.859375 45.039062 23.402344 C 44.675781 23.945312 44.371094 24.515625 44.121094 25.121094 C 43.871094 25.722656 43.683594 26.34375 43.554688 26.984375 C 43.429688 27.625 43.363281 28.273438 43.363281 28.925781 L 43.363281 307.257812 C 43.363281 307.910156 43.429688 308.558594 43.554688 309.199219 C 43.683594 309.839844 43.871094 310.460938 44.121094 311.0625 C 44.371094 311.667969 44.675781 312.238281 45.039062 312.78125 C 45.402344 313.324219 45.816406 313.828125 46.277344 314.289062 C 46.738281 314.75 47.238281 315.160156 47.78125 315.523438 C 48.324219 315.886719 48.898438 316.191406 49.5 316.441406 C 50.105469 316.691406 50.726562 316.882812 51.367188 317.007812 C 52.007812 317.136719 52.652344 317.199219 53.304688 317.199219 Z M 301.820312 78.628906 L 301.820312 337.082031 L 103.007812 337.082031 L 103.007812 317.199219 L 271.996094 317.199219 C 272.648438 317.199219 273.296875 317.136719 273.9375 317.007812 C 274.578125 316.882812 275.199219 316.691406 275.800781 316.441406 C 276.402344 316.191406 276.976562 315.886719 277.519531 315.523438 C 278.0625 315.160156 278.5625 314.75 279.027344 314.289062 C 279.488281 313.828125 279.898438 313.324219 280.261719 312.78125 C 280.625 312.238281 280.929688 311.667969 281.179688 311.0625 C 281.429688 310.460938 281.617188 309.839844 281.746094 309.199219 C 281.875 308.558594 281.9375 307.910156 281.9375 307.257812 L 281.9375 88.566406 C 281.9375 88.566406 281.9375 88.566406 281.9375 87.175781 C 281.9375 85.785156 281.9375 87.175781 281.9375 85.984375 C 282.03125 85.585938 282.03125 85.1875 281.9375 84.789062 C 281.503906 83.527344 280.777344 82.464844 279.75 81.609375 L 276.171875 78.628906 Z M 247.941406 78.628906 L 222.292969 78.628906 L 222.292969 52.980469 L 245.15625 75.644531 Z M 63.246094 38.863281 L 202.414062 38.863281 L 202.414062 88.566406 C 202.414062 89.21875 202.476562 89.867188 202.605469 90.507812 C 202.730469 91.148438 202.921875 91.769531 203.167969 92.371094 C 203.417969 92.976562 203.726562 93.546875 204.089844 94.089844 C 204.449219 94.632812 204.863281 95.136719 205.324219 95.597656 C 205.785156 96.058594 206.289062 96.46875 206.832031 96.832031 C 207.375 97.195312 207.945312 97.5 208.550781 97.75 C 209.152344 98 209.773438 98.191406 210.414062 98.316406 C 211.054688 98.445312 211.699219 98.507812 212.355469 98.507812 L 262.054688 98.507812 L 262.054688 297.320312 L 63.246094 297.320312 Z M 83.125 88.566406 C 83.125 87.914062 83.191406 87.269531 83.316406 86.628906 C 83.445312 85.988281 83.632812 85.367188 83.882812 84.761719 C 84.132812 84.160156 84.441406 83.585938 84.800781 83.046875 C 85.164062 82.503906 85.578125 82 86.039062 81.539062 C 86.5 81.078125 87.003906 80.664062 87.542969 80.300781 C 88.085938 79.941406 88.660156 79.632812 89.261719 79.382812 C 89.867188 79.132812 90.488281 78.945312 91.128906 78.816406 C 91.769531 78.691406 92.414062 78.628906 93.066406 78.628906 L 152.710938 78.628906 C 153.363281 78.628906 154.007812 78.691406 154.648438 78.816406 C 155.289062 78.945312 155.910156 79.132812 156.515625 79.382812 C 157.117188 79.632812 157.691406 79.941406 158.234375 80.300781 C 158.777344 80.664062 159.277344 81.078125 159.738281 81.539062 C 160.199219 82 160.613281 82.503906 160.976562 83.046875 C 161.339844 83.585938 161.644531 84.160156 161.894531 84.761719 C 162.144531 85.367188 162.332031 85.988281 162.460938 86.628906 C 162.585938 87.269531 162.652344 87.914062 162.652344 88.566406 C 162.652344 89.21875 162.585938 89.867188 162.460938 90.507812 C 162.332031 91.148438 162.144531 91.769531 161.894531 92.371094 C 161.644531 92.976562 161.339844 93.546875 160.976562 94.089844 C 160.613281 94.632812 160.199219 95.136719 159.738281 95.597656 C 159.277344 96.058594 158.777344 96.46875 158.234375 96.832031 C 157.691406 97.195312 157.117188 97.5 156.515625 97.75 C 155.910156 98 155.289062 98.191406 154.648438 98.316406 C 154.007812 98.445312 153.363281 98.507812 152.710938 98.507812 L 93.066406 98.507812 C 92.414062 98.507812 91.769531 98.445312 91.128906 98.316406 C 90.488281 98.191406 89.867188 98 89.261719 97.75 C 88.660156 97.5 88.085938 97.195312 87.542969 96.832031 C 87.003906 96.46875 86.5 96.058594 86.039062 95.597656 C 85.578125 95.136719 85.164062 94.632812 84.800781 94.089844 C 84.441406 93.546875 84.132812 92.976562 83.882812 92.371094 C 83.632812 91.769531 83.445312 91.148438 83.316406 90.507812 C 83.191406 89.867188 83.125 89.21875 83.125 88.566406 Z M 83.125 128.328125 C 83.125 127.675781 83.191406 127.03125 83.316406 126.390625 C 83.445312 125.75 83.632812 125.128906 83.882812 124.527344 C 84.132812 123.921875 84.441406 123.351562 84.800781 122.808594 C 85.164062 122.265625 85.578125 121.761719 86.039062 121.300781 C 86.5 120.839844 87.003906 120.425781 87.542969 120.066406 C 88.085938 119.703125 88.660156 119.394531 89.261719 119.144531 C 89.867188 118.894531 90.488281 118.707031 91.128906 118.582031 C 91.769531 118.453125 92.414062 118.390625 93.066406 118.390625 L 192.472656 118.390625 C 193.125 118.390625 193.773438 118.453125 194.410156 118.582031 C 195.050781 118.707031 195.671875 118.894531 196.277344 119.144531 C 196.878906 119.394531 197.453125 119.703125 197.996094 120.066406 C 198.539062 120.425781 199.039062 120.839844 199.5 121.300781 C 199.964844 121.761719 200.375 122.265625 200.738281 122.808594 C 201.101562 123.351562 201.40625 123.921875 201.65625 124.527344 C 201.90625 125.128906 202.09375 125.75 202.222656 126.390625 C 202.347656 127.03125 202.414062 127.675781 202.414062 128.328125 C 202.414062 128.984375 202.347656 129.628906 202.222656 130.269531 C 202.09375 130.910156 201.90625 131.53125 201.65625 132.132812 C 201.40625 132.738281 201.101562 133.308594 200.738281 133.851562 C 200.375 134.394531 199.964844 134.898438 199.5 135.359375 C 199.039062 135.820312 198.539062 136.230469 197.996094 136.59375 C 197.453125 136.957031 196.878906 137.265625 196.277344 137.511719 C 195.671875 137.761719 195.050781 137.953125 194.410156 138.078125 C 193.773438 138.207031 193.125 138.269531 192.472656 138.269531 L 93.066406 138.269531 C 92.414062 138.269531 91.769531 138.207031 91.128906 138.078125 C 90.488281 137.953125 89.867188 137.761719 89.261719 137.511719 C 88.660156 137.265625 88.085938 136.957031 87.542969 136.59375 C 87.003906 136.230469 86.5 135.820312 86.039062 135.359375 C 85.578125 134.898438 85.164062 134.394531 84.800781 133.851562 C 84.441406 133.308594 84.132812 132.738281 83.882812 132.132812 C 83.632812 131.53125 83.445312 130.910156 83.316406 130.269531 C 83.191406 129.628906 83.125 128.984375 83.125 128.328125 Z M 83.125 168.09375 C 83.125 167.4375 83.191406 166.792969 83.316406 166.152344 C 83.445312 165.511719 83.632812 164.890625 83.882812 164.289062 C 84.132812 163.683594 84.441406 163.113281 84.800781 162.570312 C 85.164062 162.027344 85.578125 161.523438 86.039062 161.0625 C 86.5 160.601562 87.003906 160.1875 87.542969 159.828125 C 88.085938 159.464844 88.660156 159.15625 89.261719 158.90625 C 89.867188 158.660156 90.488281 158.46875 91.128906 158.34375 C 91.769531 158.214844 92.414062 158.152344 93.066406 158.152344 L 192.472656 158.152344 C 193.125 158.152344 193.773438 158.214844 194.410156 158.34375 C 195.050781 158.46875 195.671875 158.660156 196.277344 158.90625 C 196.878906 159.15625 197.453125 159.464844 197.996094 159.828125 C 198.539062 160.1875 199.039062 160.601562 199.5 161.0625 C 199.964844 161.523438 200.375 162.027344 200.738281 162.570312 C 201.101562 163.113281 201.40625 163.683594 201.65625 164.289062 C 201.90625 164.890625 202.09375 165.511719 202.222656 166.152344 C 202.347656 166.792969 202.414062 167.4375 202.414062 168.09375 C 202.414062 168.746094 202.347656 169.390625 202.222656 170.03125 C 202.09375 170.671875 201.90625 171.292969 201.65625 171.894531 C 201.40625 172.5 201.101562 173.070312 200.738281 173.613281 C 200.375 174.15625 199.964844 174.660156 199.5 175.121094 C 199.039062 175.582031 198.539062 175.996094 197.996094 176.355469 C 197.453125 176.71875 196.878906 177.027344 196.277344 177.277344 C 195.671875 177.527344 195.050781 177.714844 194.410156 177.839844 C 193.773438 177.96875 193.125 178.03125 192.472656 178.03125 L 93.066406 178.03125 C 92.414062 178.03125 91.769531 177.96875 91.128906 177.839844 C 90.488281 177.714844 89.867188 177.527344 89.261719 177.277344 C 88.660156 177.027344 88.085938 176.71875 87.542969 176.355469 C 87.003906 175.996094 86.5 175.582031 86.039062 175.121094 C 85.578125 174.660156 85.164062 174.15625 84.800781 173.613281 C 84.441406 173.070312 84.132812 172.5 83.882812 171.894531 C 83.632812 171.292969 83.445312 170.671875 83.316406 170.03125 C 83.191406 169.390625 83.125 168.746094 83.125 168.09375 Z M 93.066406 217.792969 C 92.414062 217.792969 91.769531 217.730469 91.128906 217.601562 C 90.488281 217.476562 89.867188 217.289062 89.261719 217.039062 C 88.660156 216.789062 88.085938 216.480469 87.542969 216.121094 C 87.003906 215.757812 86.5 215.34375 86.039062 214.882812 C 85.578125 214.421875 85.164062 213.917969 84.800781 213.375 C 84.441406 212.832031 84.132812 212.261719 83.882812 211.65625 C 83.632812 211.054688 83.445312 210.433594 83.316406 209.792969 C 83.191406 209.152344 83.125 208.507812 83.125 207.855469 C 83.125 207.203125 83.191406 206.554688 83.316406 205.914062 C 83.445312 205.273438 83.632812 204.652344 83.882812 204.050781 C 84.132812 203.445312 84.441406 202.875 84.800781 202.332031 C 85.164062 201.789062 85.578125 201.285156 86.039062 200.824219 C 86.5 200.363281 87.003906 199.953125 87.542969 199.589844 C 88.085938 199.226562 88.660156 198.917969 89.261719 198.671875 C 89.867188 198.421875 90.488281 198.230469 91.128906 198.105469 C 91.769531 197.976562 92.414062 197.914062 93.066406 197.914062 L 172.589844 197.914062 C 173.246094 197.914062 173.890625 197.976562 174.53125 198.105469 C 175.171875 198.230469 175.792969 198.421875 176.394531 198.671875 C 177 198.917969 177.570312 199.226562 178.113281 199.589844 C 178.65625 199.953125 179.160156 200.363281 179.621094 200.824219 C 180.082031 201.285156 180.496094 201.789062 180.855469 202.332031 C 181.21875 202.875 181.527344 203.445312 181.777344 204.050781 C 182.023438 204.652344 182.214844 205.273438 182.339844 205.914062 C 182.46875 206.554688 182.53125 207.203125 182.53125 207.855469 C 182.53125 208.507812 182.46875 209.152344 182.339844 209.792969 C 182.214844 210.433594 182.023438 211.054688 181.777344 211.65625 C 181.527344 212.261719 181.21875 212.832031 180.855469 213.375 C 180.496094 213.917969 180.082031 214.421875 179.621094 214.882812 C 179.160156 215.34375 178.65625 215.757812 178.113281 216.121094 C 177.570312 216.480469 177 216.789062 176.394531 217.039062 C 175.792969 217.289062 175.171875 217.476562 174.53125 217.601562 C 173.890625 217.730469 173.246094 217.792969 172.589844 217.792969 Z M 93.066406 217.792969 " clip-rule="nonzero"/></clipPath><linearGradient x1="0.000000362154" gradientTransform="matrix(19.881047, 0, 0, 19.881047, 43.364826, 18.984015)" y1="8.5" x2="14" gradientUnits="userSpaceOnUse" y2="8.5" id="1af95e31b8"><stop stop-opacity="1" stop-color="rgb(79.219055%, 94.119263%, 97.24884%)" offset="0"/><stop stop-opacity="1" stop-color="rgb(79.037476%, 94.068909%, 97.219849%)" offset="0.0078125"/><stop stop-opacity="1" stop-color="rgb(78.674316%, 93.968201%, 97.164917%)" offset="0.015625"/><stop stop-opacity="1" stop-color="rgb(78.312683%, 93.869019%, 97.108459%)" offset="0.0234375"/><stop stop-opacity="1" stop-color="rgb(77.949524%, 93.768311%, 97.052002%)" offset="0.03125"/><stop stop-opacity="1" stop-color="rgb(77.586365%, 93.669128%, 96.995544%)" offset="0.0390625"/><stop stop-opacity="1" stop-color="rgb(77.224731%, 93.56842%, 96.940613%)" offset="0.046875"/><stop stop-opacity="1" stop-color="rgb(76.861572%, 93.467712%, 96.884155%)" offset="0.0546875"/><stop stop-opacity="1" stop-color="rgb(76.498413%, 93.36853%, 96.827698%)" offset="0.0625"/><stop stop-opacity="1" stop-color="rgb(76.135254%, 93.267822%, 96.77124%)" offset="0.0703125"/><stop stop-opacity="1" stop-color="rgb(75.773621%, 93.167114%, 96.714783%)" offset="0.078125"/><stop stop-opacity="1" stop-color="rgb(75.410461%, 93.067932%, 96.659851%)" offset="0.0859375"/><stop stop-opacity="1" stop-color="rgb(75.047302%, 92.967224%, 96.603394%)" offset="0.09375"/><stop stop-opacity="1" stop-color="rgb(74.685669%, 92.868042%, 96.546936%)" offset="0.101562"/><stop stop-opacity="1" stop-color="rgb(74.32251%, 92.767334%, 96.490479%)" offset="0.109375"/><stop stop-opacity="1" stop-color="rgb(73.959351%, 92.666626%, 96.435547%)" offset="0.117188"/><stop stop-opacity="1" stop-color="rgb(73.596191%, 92.567444%, 96.379089%)" offset="0.125"/><stop stop-opacity="1" stop-color="rgb(73.234558%, 92.466736%, 96.322632%)" offset="0.132813"/><stop stop-opacity="1" stop-color="rgb(72.871399%, 92.366028%, 96.266174%)" offset="0.140625"/><stop stop-opacity="1" stop-color="rgb(72.50824%, 92.266846%, 96.209717%)" offset="0.148438"/><stop stop-opacity="1" stop-color="rgb(72.146606%, 92.166138%, 96.154785%)" offset="0.15625"/><stop stop-opacity="1" stop-color="rgb(71.783447%, 92.066956%, 96.098328%)" offset="0.164063"/><stop stop-opacity="1" stop-color="rgb(71.420288%, 91.966248%, 96.04187%)" offset="0.171875"/><stop stop-opacity="1" stop-color="rgb(71.057129%, 91.86554%, 95.985413%)" offset="0.179688"/><stop stop-opacity="1" stop-color="rgb(70.695496%, 91.766357%, 95.930481%)" offset="0.1875"/><stop stop-opacity="1" stop-color="rgb(70.332336%, 91.665649%, 95.874023%)" offset="0.195313"/><stop stop-opacity="1" stop-color="rgb(69.969177%, 91.564941%, 95.817566%)" offset="0.203125"/><stop stop-opacity="1" stop-color="rgb(69.607544%, 91.465759%, 95.761108%)" offset="0.210938"/><stop stop-opacity="1" stop-color="rgb(69.244385%, 91.365051%, 95.704651%)" offset="0.21875"/><stop stop-opacity="1" stop-color="rgb(68.881226%, 91.265869%, 95.649719%)" offset="0.226563"/><stop stop-opacity="1" stop-color="rgb(68.518066%, 91.165161%, 95.593262%)" offset="0.234375"/><stop stop-opacity="1" stop-color="rgb(68.156433%, 91.064453%, 95.536804%)" offset="0.242188"/><stop stop-opacity="1" stop-color="rgb(67.793274%, 90.965271%, 95.480347%)" offset="0.25"/><stop stop-opacity="1" stop-color="rgb(67.430115%, 90.864563%, 95.425415%)" offset="0.257813"/><stop stop-opacity="1" stop-color="rgb(67.068481%, 90.765381%, 95.368958%)" offset="0.265625"/><stop stop-opacity="1" stop-color="rgb(66.705322%, 90.664673%, 95.3125%)" offset="0.273438"/><stop stop-opacity="1" stop-color="rgb(66.342163%, 90.563965%, 95.256042%)" offset="0.28125"/><stop stop-opacity="1" stop-color="rgb(65.979004%, 90.464783%, 95.199585%)" offset="0.289062"/><stop stop-opacity="1" stop-color="rgb(65.617371%, 90.364075%, 95.144653%)" offset="0.296875"/><stop stop-opacity="1" stop-color="rgb(65.254211%, 90.263367%, 95.088196%)" offset="0.304688"/><stop stop-opacity="1" stop-color="rgb(64.891052%, 90.164185%, 95.031738%)" offset="0.3125"/><stop stop-opacity="1" stop-color="rgb(64.529419%, 90.063477%, 94.975281%)" offset="0.320312"/><stop stop-opacity="1" stop-color="rgb(64.16626%, 89.964294%, 94.918823%)" offset="0.328125"/><stop stop-opacity="1" stop-color="rgb(63.803101%, 89.863586%, 94.863892%)" offset="0.335938"/><stop stop-opacity="1" stop-color="rgb(63.439941%, 89.762878%, 94.807434%)" offset="0.34375"/><stop stop-opacity="1" stop-color="rgb(63.078308%, 89.663696%, 94.750977%)" offset="0.351562"/><stop stop-opacity="1" stop-color="rgb(62.715149%, 89.562988%, 94.694519%)" offset="0.359375"/><stop stop-opacity="1" stop-color="rgb(62.35199%, 89.46228%, 94.639587%)" offset="0.367188"/><stop stop-opacity="1" stop-color="rgb(61.990356%, 89.363098%, 94.58313%)" offset="0.375"/><stop stop-opacity="1" stop-color="rgb(61.627197%, 89.26239%, 94.526672%)" offset="0.382812"/><stop stop-opacity="1" stop-color="rgb(61.264038%, 89.163208%, 94.470215%)" offset="0.390625"/><stop stop-opacity="1" stop-color="rgb(60.900879%, 89.0625%, 94.413757%)" offset="0.398438"/><stop stop-opacity="1" stop-color="rgb(60.539246%, 88.961792%, 94.358826%)" offset="0.40625"/><stop stop-opacity="1" stop-color="rgb(60.176086%, 88.86261%, 94.302368%)" offset="0.414062"/><stop stop-opacity="1" stop-color="rgb(59.812927%, 88.761902%, 94.245911%)" offset="0.421875"/><stop stop-opacity="1" stop-color="rgb(59.451294%, 88.66272%, 94.189453%)" offset="0.429688"/><stop stop-opacity="1" stop-color="rgb(59.088135%, 88.562012%, 94.134521%)" offset="0.4375"/><stop stop-opacity="1" stop-color="rgb(58.724976%, 88.461304%, 94.078064%)" offset="0.445312"/><stop stop-opacity="1" stop-color="rgb(58.361816%, 88.362122%, 94.021606%)" offset="0.453125"/><stop stop-opacity="1" stop-color="rgb(58.000183%, 88.261414%, 93.965149%)" offset="0.460938"/><stop stop-opacity="1" stop-color="rgb(57.637024%, 88.160706%, 93.908691%)" offset="0.46875"/><stop stop-opacity="1" stop-color="rgb(57.273865%, 88.061523%, 93.85376%)" offset="0.476562"/><stop stop-opacity="1" stop-color="rgb(56.912231%, 87.960815%, 93.797302%)" offset="0.484375"/><stop stop-opacity="1" stop-color="rgb(56.478882%, 87.838745%, 93.730164%)" offset="0.488281"/><stop stop-opacity="1" stop-color="rgb(56.227112%, 87.765503%, 93.690491%)" offset="0.492188"/><stop stop-opacity="1" stop-color="rgb(55.793762%, 87.632751%, 93.6203%)" offset="0.496094"/><stop stop-opacity="1" stop-color="rgb(55.361938%, 87.501526%, 93.551636%)" offset="0.5"/><stop stop-opacity="1" stop-color="rgb(54.928589%, 87.368774%, 93.482971%)" offset="0.503906"/><stop stop-opacity="1" stop-color="rgb(54.496765%, 87.236023%, 93.414307%)" offset="0.507812"/><stop stop-opacity="1" stop-color="rgb(54.063416%, 87.103271%, 93.344116%)" offset="0.511719"/><stop stop-opacity="1" stop-color="rgb(53.631592%, 86.972046%, 93.275452%)" offset="0.515625"/><stop stop-opacity="1" stop-color="rgb(53.198242%, 86.839294%, 93.206787%)" offset="0.519531"/><stop stop-opacity="1" stop-color="rgb(52.766418%, 86.708069%, 93.138123%)" offset="0.523437"/><stop stop-opacity="1" stop-color="rgb(52.333069%, 86.575317%, 93.067932%)" offset="0.527344"/><stop stop-opacity="1" stop-color="rgb(51.901245%, 86.444092%, 92.999268%)" offset="0.53125"/><stop stop-opacity="1" stop-color="rgb(51.467896%, 86.31134%, 92.930603%)" offset="0.535156"/><stop stop-opacity="1" stop-color="rgb(51.036072%, 86.180115%, 92.861938%)" offset="0.539062"/><stop stop-opacity="1" stop-color="rgb(50.604248%, 86.047363%, 92.791748%)" offset="0.542969"/><stop stop-opacity="1" stop-color="rgb(50.172424%, 85.916138%, 92.723083%)" offset="0.546875"/><stop stop-opacity="1" stop-color="rgb(49.739075%, 85.783386%, 92.654419%)" offset="0.550781"/><stop stop-opacity="1" stop-color="rgb(49.307251%, 85.650635%, 92.585754%)" offset="0.554687"/><stop stop-opacity="1" stop-color="rgb(48.873901%, 85.517883%, 92.515564%)" offset="0.558594"/><stop stop-opacity="1" stop-color="rgb(48.442078%, 85.386658%, 92.446899%)" offset="0.5625"/><stop stop-opacity="1" stop-color="rgb(48.008728%, 85.253906%, 92.378235%)" offset="0.566406"/><stop stop-opacity="1" stop-color="rgb(47.576904%, 85.122681%, 92.30957%)" offset="0.570312"/><stop stop-opacity="1" stop-color="rgb(47.143555%, 84.989929%, 92.23938%)" offset="0.574219"/><stop stop-opacity="1" stop-color="rgb(46.711731%, 84.858704%, 92.170715%)" offset="0.578125"/><stop stop-opacity="1" stop-color="rgb(46.278381%, 84.725952%, 92.100525%)" offset="0.582031"/><stop stop-opacity="1" stop-color="rgb(45.846558%, 84.594727%, 92.03186%)" offset="0.585937"/><stop stop-opacity="1" stop-color="rgb(45.413208%, 84.461975%, 91.963196%)" offset="0.589844"/><stop stop-opacity="1" stop-color="rgb(44.981384%, 84.33075%, 91.894531%)" offset="0.59375"/><stop stop-opacity="1" stop-color="rgb(44.548035%, 84.197998%, 91.824341%)" offset="0.597656"/><stop stop-opacity="1" stop-color="rgb(44.116211%, 84.065247%, 91.755676%)" offset="0.601562"/><stop stop-opacity="1" stop-color="rgb(43.682861%, 83.932495%, 91.687012%)" offset="0.605469"/><stop stop-opacity="1" stop-color="rgb(43.251038%, 83.80127%, 91.618347%)" offset="0.609375"/><stop stop-opacity="1" stop-color="rgb(42.817688%, 83.668518%, 91.548157%)" offset="0.613281"/><stop stop-opacity="1" stop-color="rgb(42.385864%, 83.537292%, 91.479492%)" offset="0.617187"/><stop stop-opacity="1" stop-color="rgb(41.952515%, 83.404541%, 91.410828%)" offset="0.621094"/><stop stop-opacity="1" stop-color="rgb(41.520691%, 83.273315%, 91.342163%)" offset="0.625"/><stop stop-opacity="1" stop-color="rgb(41.087341%, 83.140564%, 91.271973%)" offset="0.628906"/><stop stop-opacity="1" stop-color="rgb(40.655518%, 83.009338%, 91.203308%)" offset="0.632812"/><stop stop-opacity="1" stop-color="rgb(40.223694%, 82.876587%, 91.134644%)" offset="0.636719"/><stop stop-opacity="1" stop-color="rgb(39.79187%, 82.743835%, 91.065979%)" offset="0.640625"/><stop stop-opacity="1" stop-color="rgb(39.358521%, 82.611084%, 90.995789%)" offset="0.644531"/><stop stop-opacity="1" stop-color="rgb(38.926697%, 82.479858%, 90.927124%)" offset="0.648437"/><stop stop-opacity="1" stop-color="rgb(38.493347%, 82.347107%, 90.856934%)" offset="0.652344"/><stop stop-opacity="1" stop-color="rgb(38.061523%, 82.215881%, 90.788269%)" offset="0.65625"/><stop stop-opacity="1" stop-color="rgb(37.628174%, 82.08313%, 90.719604%)" offset="0.660156"/><stop stop-opacity="1" stop-color="rgb(37.19635%, 81.951904%, 90.65094%)" offset="0.664062"/><stop stop-opacity="1" stop-color="rgb(36.763%, 81.819153%, 90.58075%)" offset="0.667969"/><stop stop-opacity="1" stop-color="rgb(36.331177%, 81.687927%, 90.512085%)" offset="0.671875"/><stop stop-opacity="1" stop-color="rgb(35.897827%, 81.555176%, 90.44342%)" offset="0.675781"/><stop stop-opacity="1" stop-color="rgb(35.466003%, 81.42395%, 90.374756%)" offset="0.679687"/><stop stop-opacity="1" stop-color="rgb(35.032654%, 81.291199%, 90.304565%)" offset="0.683594"/><stop stop-opacity="1" stop-color="rgb(34.60083%, 81.158447%, 90.235901%)" offset="0.6875"/><stop stop-opacity="1" stop-color="rgb(34.16748%, 81.025696%, 90.167236%)" offset="0.691406"/><stop stop-opacity="1" stop-color="rgb(33.735657%, 80.89447%, 90.098572%)" offset="0.695312"/><stop stop-opacity="1" stop-color="rgb(33.302307%, 80.761719%, 90.028381%)" offset="0.699219"/><stop stop-opacity="1" stop-color="rgb(32.870483%, 80.630493%, 89.959717%)" offset="0.703125"/><stop stop-opacity="1" stop-color="rgb(32.437134%, 80.497742%, 89.891052%)" offset="0.707031"/><stop stop-opacity="1" stop-color="rgb(32.00531%, 80.366516%, 89.822388%)" offset="0.710937"/><stop stop-opacity="1" stop-color="rgb(31.57196%, 80.233765%, 89.752197%)" offset="0.714844"/><stop stop-opacity="1" stop-color="rgb(31.140137%, 80.102539%, 89.683533%)" offset="0.71875"/><stop stop-opacity="1" stop-color="rgb(30.708313%, 79.969788%, 89.613342%)" offset="0.722656"/><stop stop-opacity="1" stop-color="rgb(30.276489%, 79.838562%, 89.544678%)" offset="0.726562"/><stop stop-opacity="1" stop-color="rgb(29.84314%, 79.705811%, 89.476013%)" offset="0.730469"/><stop stop-opacity="1" stop-color="rgb(29.411316%, 79.573059%, 89.407349%)" offset="0.734375"/><stop stop-opacity="1" stop-color="rgb(28.977966%, 79.440308%, 89.337158%)" offset="0.738281"/><stop stop-opacity="1" stop-color="rgb(28.546143%, 79.309082%, 89.268494%)" offset="0.742187"/><stop stop-opacity="1" stop-color="rgb(28.112793%, 79.176331%, 89.199829%)" offset="0.746094"/><stop stop-opacity="1" stop-color="rgb(27.680969%, 79.045105%, 89.131165%)" offset="0.75"/><stop stop-opacity="1" stop-color="rgb(27.24762%, 78.912354%, 89.060974%)" offset="0.753906"/><stop stop-opacity="1" stop-color="rgb(26.815796%, 78.781128%, 88.99231%)" offset="0.757812"/><stop stop-opacity="1" stop-color="rgb(26.382446%, 78.648376%, 88.923645%)" offset="0.761719"/><stop stop-opacity="1" stop-color="rgb(25.950623%, 78.517151%, 88.85498%)" offset="0.765625"/><stop stop-opacity="1" stop-color="rgb(25.517273%, 78.384399%, 88.78479%)" offset="0.769531"/><stop stop-opacity="1" stop-color="rgb(25.085449%, 78.251648%, 88.716125%)" offset="0.773437"/><stop stop-opacity="1" stop-color="rgb(24.6521%, 78.118896%, 88.647461%)" offset="0.777344"/><stop stop-opacity="1" stop-color="rgb(24.220276%, 77.987671%, 88.578796%)" offset="0.78125"/><stop stop-opacity="1" stop-color="rgb(23.786926%, 77.854919%, 88.508606%)" offset="0.785156"/><stop stop-opacity="1" stop-color="rgb(23.355103%, 77.723694%, 88.439941%)" offset="0.789062"/><stop stop-opacity="1" stop-color="rgb(22.921753%, 77.590942%, 88.369751%)" offset="0.792969"/><stop stop-opacity="1" stop-color="rgb(22.489929%, 77.459717%, 88.301086%)" offset="0.796875"/><stop stop-opacity="1" stop-color="rgb(22.05658%, 77.326965%, 88.232422%)" offset="0.800781"/><stop stop-opacity="1" stop-color="rgb(21.624756%, 77.19574%, 88.163757%)" offset="0.804687"/><stop stop-opacity="1" stop-color="rgb(21.191406%, 77.062988%, 88.093567%)" offset="0.808594"/><stop stop-opacity="1" stop-color="rgb(20.759583%, 76.931763%, 88.024902%)" offset="0.8125"/><stop stop-opacity="1" stop-color="rgb(20.327759%, 76.799011%, 87.956238%)" offset="0.816406"/><stop stop-opacity="1" stop-color="rgb(19.895935%, 76.66626%, 87.887573%)" offset="0.820312"/><stop stop-opacity="1" stop-color="rgb(19.462585%, 76.533508%, 87.817383%)" offset="0.824219"/><stop stop-opacity="1" stop-color="rgb(19.030762%, 76.402283%, 87.748718%)" offset="0.828125"/><stop stop-opacity="1" stop-color="rgb(18.597412%, 76.269531%, 87.680054%)" offset="0.832031"/><stop stop-opacity="1" stop-color="rgb(18.165588%, 76.138306%, 87.611389%)" offset="0.835937"/><stop stop-opacity="1" stop-color="rgb(17.732239%, 76.005554%, 87.541199%)" offset="0.839844"/><stop stop-opacity="1" stop-color="rgb(17.300415%, 75.874329%, 87.472534%)" offset="0.84375"/><stop stop-opacity="1" stop-color="rgb(16.867065%, 75.741577%, 87.40387%)" offset="0.847656"/><stop stop-opacity="1" stop-color="rgb(16.435242%, 75.610352%, 87.335205%)" offset="0.851562"/><stop stop-opacity="1" stop-color="rgb(16.001892%, 75.4776%, 87.265015%)" offset="0.855469"/><stop stop-opacity="1" stop-color="rgb(15.570068%, 75.346375%, 87.19635%)" offset="0.859375"/><stop stop-opacity="1" stop-color="rgb(15.136719%, 75.213623%, 87.12616%)" offset="0.863281"/><stop stop-opacity="1" stop-color="rgb(14.704895%, 75.080872%, 87.057495%)" offset="0.867187"/><stop stop-opacity="1" stop-color="rgb(14.271545%, 74.94812%, 86.988831%)" offset="0.871094"/><stop stop-opacity="1" stop-color="rgb(13.839722%, 74.816895%, 86.920166%)" offset="0.875"/><stop stop-opacity="1" stop-color="rgb(13.406372%, 74.684143%, 86.849976%)" offset="0.878906"/><stop stop-opacity="1" stop-color="rgb(12.974548%, 74.552917%, 86.781311%)" offset="0.882812"/><stop stop-opacity="1" stop-color="rgb(12.541199%, 74.420166%, 86.712646%)" offset="0.886719"/><stop stop-opacity="1" stop-color="rgb(12.109375%, 74.28894%, 86.643982%)" offset="0.890625"/><stop stop-opacity="1" stop-color="rgb(11.676025%, 74.156189%, 86.573792%)" offset="0.894531"/><stop stop-opacity="1" stop-color="rgb(11.244202%, 74.024963%, 86.505127%)" offset="0.898437"/><stop stop-opacity="1" stop-color="rgb(10.810852%, 73.892212%, 86.436462%)" offset="0.902344"/><stop stop-opacity="1" stop-color="rgb(10.379028%, 73.75946%, 86.367798%)" offset="0.90625"/><stop stop-opacity="1" stop-color="rgb(9.947205%, 73.626709%, 86.297607%)" offset="0.910156"/><stop stop-opacity="1" stop-color="rgb(9.515381%, 73.495483%, 86.228943%)" offset="0.914062"/><stop stop-opacity="1" stop-color="rgb(9.082031%, 73.362732%, 86.160278%)" offset="0.917969"/><stop stop-opacity="1" stop-color="rgb(8.650208%, 73.231506%, 86.091614%)" offset="0.921875"/><stop stop-opacity="1" stop-color="rgb(8.216858%, 73.098755%, 86.021423%)" offset="0.925781"/><stop stop-opacity="1" stop-color="rgb(7.785034%, 72.967529%, 85.952759%)" offset="0.929687"/><stop stop-opacity="1" stop-color="rgb(7.351685%, 72.834778%, 85.882568%)" offset="0.933594"/><stop stop-opacity="1" stop-color="rgb(6.919861%, 72.703552%, 85.813904%)" offset="0.9375"/><stop stop-opacity="1" stop-color="rgb(6.486511%, 72.570801%, 85.745239%)" offset="0.941406"/><stop stop-opacity="1" stop-color="rgb(6.054688%, 72.439575%, 85.676575%)" offset="0.945312"/><stop stop-opacity="1" stop-color="rgb(5.621338%, 72.306824%, 85.606384%)" offset="0.949219"/><stop stop-opacity="1" stop-color="rgb(5.189514%, 72.174072%, 85.53772%)" offset="0.953125"/><stop stop-opacity="1" stop-color="rgb(4.756165%, 72.041321%, 85.469055%)" offset="0.957031"/><stop stop-opacity="1" stop-color="rgb(4.324341%, 71.910095%, 85.400391%)" offset="0.960937"/><stop stop-opacity="1" stop-color="rgb(3.890991%, 71.777344%, 85.3302%)" offset="0.964844"/><stop stop-opacity="1" stop-color="rgb(3.459167%, 71.646118%, 85.261536%)" offset="0.96875"/><stop stop-opacity="1" stop-color="rgb(3.025818%, 71.513367%, 85.192871%)" offset="0.972656"/><stop stop-opacity="1" stop-color="rgb(2.593994%, 71.382141%, 85.124207%)" offset="0.976562"/><stop stop-opacity="1" stop-color="rgb(2.160645%, 71.24939%, 85.054016%)" offset="0.980469"/><stop stop-opacity="1" stop-color="rgb(1.728821%, 71.118164%, 84.985352%)" offset="0.984375"/><stop stop-opacity="1" stop-color="rgb(1.295471%, 70.985413%, 84.916687%)" offset="0.988281"/><stop stop-opacity="1" stop-color="rgb(0.863647%, 70.854187%, 84.848022%)" offset="0.992187"/><stop stop-opacity="1" stop-color="rgb(0.431824%, 70.721436%, 84.777832%)" offset="0.996094"/><stop stop-opacity="1" stop-color="rgb(0%, 70.588684%, 84.709167%)" offset="1"/></linearGradient><clipPath id="a6d16860cb"><rect x="0" width="375" y="0" height="340"/></clipPath><clipPath id="d175e187be"><rect x="0" width="375" y="0" height="375"/></clipPath></defs><g transform="matrix(1, 0, 0, 1, 0, 0)"><g clip-path="url(#d175e187be)"><g clip-path="url(#ed7d86bfbf)"><g clip-path="url(#caf17daab7)"><path fill="url(#1af95e31b8)" d="M 43.363281 18.984375 L 43.363281 356.960938 L 321.699219 356.960938 L 321.699219 18.984375 Z M 43.363281 18.984375 " fill-rule="nonzero"/></g></g><g transform="matrix(1, 0, 0, 1, 0, 35)"><g clip-path="url(#a6d16860cb)"><path fill="#000000" d="M 23.789062 288.441406 L 105.644531 169.28125 " fill-opacity="1" fill-rule="nonzero"/><path fill="#0077b6" d="M 21.796875 287.070312 L 103.652344 167.914062 C 103.832031 167.648438 104.058594 167.429688 104.328125 167.253906 C 104.597656 167.082031 104.886719 166.964844 105.203125 166.90625 C 105.519531 166.847656 105.832031 166.851562 106.144531 166.917969 C 106.460938 166.984375 106.746094 167.109375 107.011719 167.289062 C 107.277344 167.472656 107.496094 167.695312 107.671875 167.964844 C 107.84375 168.234375 107.960938 168.527344 108.019531 168.839844 C 108.078125 169.15625 108.074219 169.46875 108.007812 169.785156 C 107.941406 170.097656 107.816406 170.386719 107.636719 170.648438 L 25.777344 289.808594 C 25.597656 290.070312 25.371094 290.292969 25.105469 290.464844 C 24.835938 290.640625 24.542969 290.757812 24.226562 290.816406 C 23.914062 290.875 23.597656 290.871094 23.285156 290.804688 C 22.972656 290.738281 22.683594 290.613281 22.417969 290.429688 C 22.15625 290.25 21.9375 290.023438 21.761719 289.757812 C 21.585938 289.488281 21.46875 289.195312 21.410156 288.878906 C 21.351562 288.566406 21.355469 288.25 21.421875 287.9375 C 21.488281 287.625 21.613281 287.335938 21.796875 287.070312 Z M 21.796875 287.070312 " fill-opacity="1" fill-rule="nonzero"/><path fill="#000000" d="M 105.644531 169.28125 L 187.5 193.113281 " fill-opacity="1" fill-rule="nonzero"/><path fill="#0077b6" d="M 106.320312 166.960938 L 188.175781 190.792969 C 188.484375 190.882812 188.761719 191.027344 189.011719 191.226562 C 189.261719 191.429688 189.464844 191.667969 189.617188 191.949219 C 189.773438 192.230469 189.867188 192.53125 189.902344 192.847656 C 189.9375 193.167969 189.910156 193.480469 189.820312 193.789062 C 189.730469 194.097656 189.585938 194.375 189.386719 194.625 C 189.183594 194.875 188.945312 195.078125 188.664062 195.230469 C 188.382812 195.386719 188.082031 195.480469 187.765625 195.515625 C 187.445312 195.550781 187.132812 195.523438 186.824219 195.433594 L 104.96875 171.601562 C 104.660156 171.511719 104.382812 171.367188 104.132812 171.167969 C 103.882812 170.964844 103.679688 170.726562 103.527344 170.445312 C 103.371094 170.164062 103.277344 169.863281 103.242188 169.546875 C 103.207031 169.226562 103.234375 168.914062 103.324219 168.605469 C 103.414062 168.296875 103.558594 168.019531 103.757812 167.769531 C 103.960938 167.519531 104.199219 167.316406 104.480469 167.164062 C 104.761719 167.007812 105.0625 166.914062 105.378906 166.878906 C 105.699219 166.84375 106.011719 166.871094 106.320312 166.960938 Z M 106.320312 166.960938 " fill-opacity="1" fill-rule="nonzero"/><path fill="#000000" d="M 187.5 193.113281 L 269.355469 85.871094 " fill-opacity="1" fill-rule="nonzero"/><path fill="#0077b6" d="M 185.578125 191.648438 L 267.433594 84.40625 C 267.628906 84.148438 267.867188 83.941406 268.144531 83.78125 C 268.417969 83.621094 268.71875 83.519531 269.035156 83.476562 C 269.351562 83.433594 269.664062 83.453125 269.976562 83.535156 C 270.285156 83.617188 270.566406 83.753906 270.824219 83.949219 C 271.078125 84.144531 271.285156 84.378906 271.445312 84.65625 C 271.605469 84.933594 271.707031 85.230469 271.75 85.550781 C 271.792969 85.867188 271.773438 86.179688 271.691406 86.488281 C 271.609375 86.800781 271.472656 87.082031 271.277344 87.335938 L 189.421875 194.578125 C 189.226562 194.832031 188.992188 195.042969 188.714844 195.203125 C 188.4375 195.363281 188.140625 195.464844 187.820312 195.507812 C 187.503906 195.550781 187.191406 195.53125 186.878906 195.449219 C 186.570312 195.367188 186.289062 195.226562 186.035156 195.035156 C 185.777344 194.839844 185.570312 194.605469 185.410156 194.328125 C 185.25 194.050781 185.148438 193.753906 185.105469 193.433594 C 185.0625 193.117188 185.082031 192.804688 185.164062 192.492188 C 185.246094 192.183594 185.382812 191.902344 185.578125 191.648438 Z M 266.941406 85.871094 C 266.941406 85.550781 267 85.242188 267.125 84.945312 C 267.246094 84.648438 267.421875 84.386719 267.648438 84.160156 C 267.875 83.933594 268.136719 83.761719 268.429688 83.636719 C 268.726562 83.515625 269.035156 83.453125 269.355469 83.453125 C 269.675781 83.453125 269.984375 83.515625 270.28125 83.636719 C 270.578125 83.761719 270.839844 83.933594 271.066406 84.160156 C 271.292969 84.386719 271.464844 84.648438 271.589844 84.945312 C 271.710938 85.242188 271.773438 85.550781 271.773438 85.871094 C 271.773438 86.191406 271.710938 86.5 271.589844 86.796875 C 271.464844 87.089844 271.292969 87.351562 271.066406 87.578125 C 270.839844 87.804688 270.578125 87.980469 270.28125 88.101562 C 269.984375 88.226562 269.675781 88.285156 269.355469 88.285156 C 269.035156 88.285156 268.726562 88.226562 268.429688 88.101562 C 268.136719 87.980469 267.875 87.804688 267.648438 87.578125 C 267.421875 87.351562 267.246094 87.089844 267.125 86.796875 C 267 86.5 266.941406 86.191406 266.941406 85.871094 Z M 266.941406 85.871094 " fill-opacity="1" fill-rule="nonzero"/><path fill="#000000" d="M 269.355469 85.871094 L 351.210938 26.292969 " fill-opacity="1" fill-rule="nonzero"/><path fill="#0077b6" d="M 267.933594 83.917969 L 349.789062 24.335938 C 350.050781 24.148438 350.335938 24.015625 350.644531 23.941406 C 350.957031 23.867188 351.273438 23.855469 351.589844 23.90625 C 351.90625 23.953125 352.199219 24.0625 352.472656 24.230469 C 352.746094 24.398438 352.976562 24.609375 353.167969 24.871094 C 353.355469 25.128906 353.488281 25.414062 353.5625 25.726562 C 353.636719 26.035156 353.648438 26.351562 353.601562 26.667969 C 353.550781 26.984375 353.441406 27.277344 353.273438 27.550781 C 353.105469 27.824219 352.894531 28.058594 352.632812 28.246094 L 270.777344 87.824219 C 270.519531 88.011719 270.234375 88.144531 269.921875 88.21875 C 269.609375 88.292969 269.296875 88.308594 268.980469 88.257812 C 268.664062 88.207031 268.367188 88.097656 268.09375 87.933594 C 267.820312 87.765625 267.589844 87.550781 267.402344 87.292969 C 267.214844 87.035156 267.082031 86.75 267.007812 86.4375 C 266.933594 86.125 266.917969 85.8125 266.96875 85.496094 C 267.019531 85.179688 267.128906 84.882812 267.292969 84.609375 C 267.460938 84.335938 267.675781 84.105469 267.933594 83.917969 Z M 267.933594 83.917969 " fill-opacity="1" fill-rule="nonzero"/><path fill="#0077b6" d="M 40.703125 288.441406 C 40.703125 287.886719 40.675781 287.332031 40.621094 286.78125 C 40.566406 286.230469 40.484375 285.683594 40.378906 285.140625 C 40.269531 284.597656 40.136719 284.058594 39.972656 283.53125 C 39.8125 283 39.625 282.476562 39.414062 281.964844 C 39.203125 281.453125 38.964844 280.953125 38.703125 280.464844 C 38.445312 279.976562 38.160156 279.503906 37.851562 279.042969 C 37.542969 278.582031 37.214844 278.136719 36.863281 277.707031 C 36.511719 277.28125 36.140625 276.871094 35.75 276.480469 C 35.355469 276.085938 34.945312 275.714844 34.519531 275.363281 C 34.089844 275.011719 33.644531 274.683594 33.183594 274.375 C 32.722656 274.066406 32.25 273.78125 31.761719 273.523438 C 31.273438 273.261719 30.773438 273.023438 30.261719 272.8125 C 29.75 272.601562 29.226562 272.414062 28.699219 272.253906 C 28.167969 272.09375 27.628906 271.957031 27.085938 271.851562 C 26.542969 271.742188 25.996094 271.660156 25.445312 271.605469 C 24.894531 271.550781 24.339844 271.523438 23.789062 271.523438 C 23.234375 271.523438 22.679688 271.550781 22.128906 271.605469 C 21.578125 271.660156 21.03125 271.742188 20.488281 271.851562 C 19.945312 271.957031 19.40625 272.09375 18.878906 272.253906 C 18.347656 272.414062 17.824219 272.601562 17.3125 272.8125 C 16.800781 273.023438 16.300781 273.261719 15.8125 273.523438 C 15.324219 273.78125 14.851562 274.066406 14.390625 274.375 C 13.929688 274.683594 13.484375 275.011719 13.054688 275.363281 C 12.628906 275.714844 12.21875 276.085938 11.828125 276.480469 C 11.433594 276.871094 11.0625 277.28125 10.710938 277.707031 C 10.359375 278.136719 10.03125 278.582031 9.722656 279.042969 C 9.414062 279.503906 9.128906 279.976562 8.871094 280.464844 C 8.609375 280.953125 8.371094 281.453125 8.160156 281.964844 C 7.949219 282.476562 7.761719 283 7.601562 283.53125 C 7.441406 284.058594 7.304688 284.597656 7.199219 285.140625 C 7.089844 285.683594 7.007812 286.230469 6.953125 286.78125 C 6.898438 287.332031 6.871094 287.886719 6.871094 288.441406 C 6.871094 288.992188 6.898438 289.546875 6.953125 290.097656 C 7.007812 290.648438 7.089844 291.195312 7.199219 291.738281 C 7.304688 292.28125 7.441406 292.820312 7.601562 293.351562 C 7.761719 293.878906 7.949219 294.402344 8.160156 294.914062 C 8.371094 295.425781 8.609375 295.925781 8.871094 296.414062 C 9.128906 296.902344 9.414062 297.375 9.722656 297.835938 C 10.03125 298.296875 10.359375 298.742188 10.710938 299.171875 C 11.0625 299.597656 11.433594 300.007812 11.828125 300.402344 C 12.21875 300.792969 12.628906 301.164062 13.054688 301.515625 C 13.484375 301.867188 13.929688 302.195312 14.390625 302.503906 C 14.851562 302.8125 15.324219 303.097656 15.8125 303.359375 C 16.300781 303.617188 16.800781 303.855469 17.3125 304.066406 C 17.824219 304.277344 18.347656 304.464844 18.878906 304.625 C 19.40625 304.789062 19.945312 304.921875 20.488281 305.03125 C 21.03125 305.136719 21.578125 305.21875 22.128906 305.273438 C 22.679688 305.328125 23.234375 305.355469 23.789062 305.355469 C 24.339844 305.355469 24.894531 305.328125 25.445312 305.273438 C 25.996094 305.21875 26.542969 305.136719 27.085938 305.03125 C 27.628906 304.921875 28.167969 304.789062 28.699219 304.625 C 29.226562 304.464844 29.75 304.277344 30.261719 304.066406 C 30.773438 303.855469 31.273438 303.617188 31.761719 303.355469 C 32.25 303.097656 32.722656 302.8125 33.183594 302.503906 C 33.644531 302.195312 34.089844 301.867188 34.519531 301.515625 C 34.945312 301.164062 35.355469 300.792969 35.75 300.402344 C 36.140625 300.007812 36.511719 299.597656 36.863281 299.171875 C 37.214844 298.742188 37.542969 298.296875 37.851562 297.835938 C 38.160156 297.375 38.445312 296.902344 38.703125 296.414062 C 38.964844 295.925781 39.203125 295.425781 39.414062 294.914062 C 39.625 294.402344 39.8125 293.878906 39.972656 293.351562 C 40.136719 292.820312 40.269531 292.28125 40.378906 291.738281 C 40.484375 291.195312 40.566406 290.648438 40.621094 290.097656 C 40.675781 289.546875 40.703125 288.992188 40.703125 288.441406 Z M 40.703125 288.441406 " fill-opacity="1" fill-rule="nonzero"/><path fill="#0077b6" d="M 122.558594 169.28125 C 122.558594 168.726562 122.53125 168.175781 122.476562 167.625 C 122.421875 167.070312 122.339844 166.523438 122.234375 165.980469 C 122.125 165.4375 121.992188 164.902344 121.832031 164.371094 C 121.667969 163.839844 121.484375 163.320312 121.269531 162.808594 C 121.058594 162.296875 120.824219 161.796875 120.5625 161.308594 C 120.300781 160.820312 120.015625 160.34375 119.707031 159.882812 C 119.398438 159.421875 119.070312 158.980469 118.71875 158.550781 C 118.367188 158.121094 117.996094 157.710938 117.605469 157.320312 C 117.210938 156.929688 116.800781 156.558594 116.375 156.207031 C 115.945312 155.855469 115.5 155.523438 115.042969 155.21875 C 114.582031 154.910156 114.105469 154.625 113.617188 154.363281 C 113.128906 154.101562 112.628906 153.867188 112.117188 153.652344 C 111.605469 153.441406 111.082031 153.253906 110.554688 153.09375 C 110.023438 152.933594 109.488281 152.800781 108.945312 152.691406 C 108.398438 152.582031 107.851562 152.503906 107.300781 152.449219 C 106.75 152.394531 106.199219 152.367188 105.644531 152.367188 C 105.089844 152.367188 104.535156 152.394531 103.984375 152.449219 C 103.433594 152.503906 102.886719 152.582031 102.34375 152.691406 C 101.800781 152.800781 101.261719 152.933594 100.734375 153.09375 C 100.203125 153.253906 99.683594 153.441406 99.171875 153.652344 C 98.660156 153.867188 98.160156 154.101562 97.671875 154.363281 C 97.179688 154.625 96.707031 154.910156 96.246094 155.21875 C 95.785156 155.523438 95.339844 155.855469 94.914062 156.207031 C 94.484375 156.558594 94.074219 156.929688 93.683594 157.320312 C 93.292969 157.710938 92.917969 158.121094 92.566406 158.550781 C 92.214844 158.980469 91.886719 159.421875 91.578125 159.882812 C 91.273438 160.34375 90.988281 160.820312 90.726562 161.308594 C 90.464844 161.796875 90.226562 162.296875 90.015625 162.808594 C 89.804688 163.320312 89.617188 163.839844 89.457031 164.371094 C 89.296875 164.902344 89.160156 165.4375 89.054688 165.980469 C 88.945312 166.523438 88.863281 167.070312 88.808594 167.625 C 88.753906 168.175781 88.730469 168.726562 88.730469 169.28125 C 88.730469 169.835938 88.753906 170.386719 88.808594 170.9375 C 88.863281 171.492188 88.945312 172.039062 89.054688 172.582031 C 89.160156 173.125 89.296875 173.660156 89.457031 174.191406 C 89.617188 174.722656 89.804688 175.242188 90.015625 175.753906 C 90.226562 176.265625 90.464844 176.765625 90.726562 177.253906 C 90.988281 177.742188 91.273438 178.21875 91.578125 178.679688 C 91.886719 179.140625 92.214844 179.582031 92.566406 180.011719 C 92.917969 180.441406 93.292969 180.851562 93.683594 181.242188 C 94.074219 181.632812 94.484375 182.003906 94.914062 182.355469 C 95.339844 182.707031 95.785156 183.039062 96.246094 183.347656 C 96.707031 183.652344 97.179688 183.9375 97.671875 184.199219 C 98.160156 184.460938 98.660156 184.695312 99.171875 184.910156 C 99.683594 185.121094 100.203125 185.308594 100.734375 185.46875 C 101.261719 185.628906 101.800781 185.761719 102.34375 185.871094 C 102.886719 185.980469 103.433594 186.0625 103.984375 186.113281 C 104.535156 186.167969 105.089844 186.195312 105.644531 186.195312 C 106.199219 186.195312 106.75 186.167969 107.300781 186.113281 C 107.851562 186.0625 108.398438 185.980469 108.945312 185.871094 C 109.488281 185.761719 110.023438 185.628906 110.554688 185.46875 C 111.082031 185.308594 111.605469 185.121094 112.117188 184.910156 C 112.628906 184.695312 113.128906 184.460938 113.617188 184.199219 C 114.105469 183.9375 114.582031 183.652344 115.042969 183.347656 C 115.5 183.039062 115.945312 182.707031 116.375 182.355469 C 116.800781 182.003906 117.210938 181.632812 117.605469 181.242188 C 117.996094 180.851562 118.367188 180.441406 118.71875 180.011719 C 119.070312 179.582031 119.398438 179.140625 119.707031 178.679688 C 120.015625 178.21875 120.300781 177.742188 120.5625 177.253906 C 120.824219 176.765625 121.058594 176.265625 121.269531 175.753906 C 121.484375 175.242188 121.667969 174.722656 121.832031 174.191406 C 121.992188 173.660156 122.125 173.125 122.234375 172.582031 C 122.339844 172.039062 122.421875 171.492188 122.476562 170.9375 C 122.53125 170.386719 122.558594 169.835938 122.558594 169.28125 Z M 122.558594 169.28125 " fill-opacity="1" fill-rule="nonzero"/><path fill="#0077b6" d="M 204.414062 193.113281 C 204.414062 192.558594 204.386719 192.007812 204.332031 191.457031 C 204.277344 190.902344 204.199219 190.355469 204.089844 189.8125 C 203.980469 189.269531 203.847656 188.734375 203.6875 188.203125 C 203.527344 187.671875 203.339844 187.152344 203.128906 186.640625 C 202.914062 186.128906 202.679688 185.628906 202.417969 185.140625 C 202.15625 184.652344 201.871094 184.175781 201.5625 183.714844 C 201.257812 183.253906 200.925781 182.8125 200.574219 182.382812 C 200.222656 181.953125 199.851562 181.542969 199.460938 181.152344 C 199.070312 180.761719 198.660156 180.390625 198.230469 180.039062 C 197.800781 179.6875 197.359375 179.355469 196.898438 179.046875 C 196.4375 178.742188 195.960938 178.457031 195.472656 178.195312 C 194.984375 177.933594 194.484375 177.699219 193.972656 177.484375 C 193.460938 177.273438 192.941406 177.085938 192.410156 176.925781 C 191.878906 176.765625 191.34375 176.632812 190.800781 176.523438 C 190.257812 176.414062 189.710938 176.332031 189.15625 176.28125 C 188.605469 176.226562 188.054688 176.199219 187.5 176.199219 C 186.945312 176.199219 186.394531 176.226562 185.84375 176.28125 C 185.289062 176.332031 184.742188 176.414062 184.199219 176.523438 C 183.65625 176.632812 183.121094 176.765625 182.589844 176.925781 C 182.058594 177.085938 181.539062 177.273438 181.027344 177.484375 C 180.515625 177.699219 180.015625 177.933594 179.527344 178.195312 C 179.039062 178.457031 178.5625 178.742188 178.101562 179.046875 C 177.640625 179.355469 177.199219 179.6875 176.769531 180.039062 C 176.339844 180.390625 175.929688 180.761719 175.539062 181.152344 C 175.148438 181.542969 174.777344 181.953125 174.425781 182.382812 C 174.074219 182.8125 173.742188 183.253906 173.4375 183.714844 C 173.128906 184.175781 172.84375 184.652344 172.582031 185.140625 C 172.320312 185.628906 172.085938 186.128906 171.871094 186.640625 C 171.660156 187.152344 171.472656 187.671875 171.3125 188.203125 C 171.152344 188.734375 171.019531 189.269531 170.910156 189.8125 C 170.800781 190.355469 170.722656 190.902344 170.667969 191.457031 C 170.613281 192.007812 170.585938 192.558594 170.585938 193.113281 C 170.585938 193.667969 170.613281 194.21875 170.667969 194.769531 C 170.722656 195.324219 170.800781 195.871094 170.910156 196.414062 C 171.019531 196.957031 171.152344 197.492188 171.3125 198.023438 C 171.472656 198.554688 171.660156 199.074219 171.871094 199.585938 C 172.085938 200.097656 172.320312 200.597656 172.582031 201.085938 C 172.84375 201.574219 173.128906 202.050781 173.4375 202.511719 C 173.742188 202.972656 174.074219 203.414062 174.425781 203.84375 C 174.777344 204.273438 175.148438 204.683594 175.539062 205.074219 C 175.929688 205.464844 176.339844 205.835938 176.769531 206.1875 C 177.199219 206.539062 177.640625 206.871094 178.101562 207.175781 C 178.5625 207.484375 179.039062 207.769531 179.527344 208.03125 C 180.015625 208.292969 180.515625 208.527344 181.027344 208.742188 C 181.539062 208.953125 182.058594 209.140625 182.589844 209.300781 C 183.121094 209.460938 183.65625 209.59375 184.199219 209.703125 C 184.742188 209.8125 185.289062 209.890625 185.84375 209.945312 C 186.394531 210 186.945312 210.027344 187.5 210.027344 C 188.054688 210.027344 188.605469 210 189.15625 209.945312 C 189.710938 209.890625 190.257812 209.8125 190.800781 209.703125 C 191.34375 209.59375 191.878906 209.460938 192.410156 209.300781 C 192.941406 209.140625 193.460938 208.953125 193.972656 208.742188 C 194.484375 208.527344 194.984375 208.292969 195.472656 208.03125 C 195.960938 207.769531 196.4375 207.484375 196.898438 207.175781 C 197.359375 206.871094 197.800781 206.539062 198.230469 206.1875 C 198.660156 205.835938 199.070312 205.464844 199.460938 205.074219 C 199.851562 204.683594 200.222656 204.273438 200.574219 203.84375 C 200.925781 203.414062 201.257812 202.972656 201.5625 202.511719 C 201.871094 202.050781 202.15625 201.574219 202.417969 201.085938 C 202.679688 200.597656 202.914062 200.097656 203.128906 199.585938 C 203.339844 199.074219 203.527344 198.554688 203.6875 198.023438 C 203.847656 197.492188 203.980469 196.957031 204.089844 196.414062 C 204.199219 195.871094 204.277344 195.324219 204.332031 194.769531 C 204.386719 194.21875 204.414062 193.667969 204.414062 193.113281 Z M 204.414062 193.113281 " fill-opacity="1" fill-rule="nonzero"/><path fill="#0077b6" d="M 286.269531 85.871094 C 286.269531 85.316406 286.242188 84.765625 286.1875 84.214844 C 286.132812 83.664062 286.050781 83.117188 285.945312 82.574219 C 285.835938 82.03125 285.699219 81.492188 285.539062 80.964844 C 285.378906 80.433594 285.191406 79.914062 284.980469 79.402344 C 284.765625 78.890625 284.53125 78.390625 284.269531 77.902344 C 284.007812 77.414062 283.722656 76.941406 283.414062 76.480469 C 283.105469 76.019531 282.777344 75.578125 282.425781 75.148438 C 282.074219 74.722656 281.703125 74.3125 281.3125 73.921875 C 280.917969 73.53125 280.507812 73.15625 280.082031 72.808594 C 279.652344 72.457031 279.210938 72.125 278.75 71.820312 C 278.289062 71.511719 277.8125 71.226562 277.324219 70.96875 C 276.835938 70.707031 276.335938 70.46875 275.824219 70.257812 C 275.3125 70.046875 274.792969 69.859375 274.261719 69.699219 C 273.734375 69.539062 273.195312 69.40625 272.652344 69.296875 C 272.109375 69.1875 271.5625 69.109375 271.011719 69.054688 C 270.460938 69 269.910156 68.972656 269.355469 68.972656 C 268.800781 68.972656 268.25 69 267.699219 69.054688 C 267.148438 69.109375 266.601562 69.1875 266.058594 69.296875 C 265.515625 69.40625 264.980469 69.539062 264.449219 69.699219 C 263.917969 69.859375 263.398438 70.046875 262.886719 70.257812 C 262.375 70.46875 261.875 70.707031 261.386719 70.96875 C 260.898438 71.226562 260.425781 71.511719 259.964844 71.820312 C 259.503906 72.125 259.058594 72.457031 258.632812 72.808594 C 258.203125 73.15625 257.792969 73.53125 257.402344 73.921875 C 257.007812 74.3125 256.636719 74.722656 256.285156 75.148438 C 255.933594 75.578125 255.605469 76.019531 255.296875 76.480469 C 254.988281 76.941406 254.707031 77.414062 254.445312 77.902344 C 254.183594 78.390625 253.945312 78.890625 253.734375 79.402344 C 253.519531 79.914062 253.335938 80.433594 253.171875 80.964844 C 253.011719 81.492188 252.878906 82.03125 252.769531 82.574219 C 252.660156 83.117188 252.578125 83.664062 252.523438 84.214844 C 252.46875 84.765625 252.441406 85.316406 252.441406 85.871094 C 252.441406 86.425781 252.46875 86.976562 252.523438 87.527344 C 252.578125 88.078125 252.660156 88.625 252.769531 89.167969 C 252.878906 89.710938 253.011719 90.246094 253.171875 90.777344 C 253.335938 91.308594 253.519531 91.828125 253.734375 92.339844 C 253.945312 92.851562 254.183594 93.351562 254.445312 93.835938 C 254.707031 94.324219 254.988281 94.800781 255.296875 95.261719 C 255.605469 95.71875 255.933594 96.164062 256.285156 96.59375 C 256.636719 97.019531 257.007812 97.429688 257.402344 97.820312 C 257.792969 98.210938 258.203125 98.582031 258.632812 98.933594 C 259.058594 99.285156 259.503906 99.613281 259.964844 99.921875 C 260.425781 100.230469 260.898438 100.511719 261.386719 100.773438 C 261.875 101.035156 262.375 101.269531 262.886719 101.484375 C 263.398438 101.695312 263.917969 101.882812 264.449219 102.042969 C 264.980469 102.203125 265.515625 102.335938 266.058594 102.445312 C 266.601562 102.550781 267.148438 102.632812 267.699219 102.6875 C 268.25 102.742188 268.800781 102.769531 269.355469 102.769531 C 269.910156 102.769531 270.460938 102.742188 271.011719 102.6875 C 271.5625 102.632812 272.109375 102.550781 272.652344 102.445312 C 273.195312 102.335938 273.734375 102.203125 274.261719 102.042969 C 274.792969 101.882812 275.3125 101.695312 275.824219 101.484375 C 276.335938 101.269531 276.835938 101.035156 277.324219 100.773438 C 277.8125 100.511719 278.289062 100.230469 278.75 99.921875 C 279.210938 99.613281 279.652344 99.285156 280.082031 98.933594 C 280.507812 98.582031 280.917969 98.210938 281.3125 97.820312 C 281.703125 97.429688 282.074219 97.019531 282.425781 96.59375 C 282.777344 96.164062 283.105469 95.71875 283.414062 95.261719 C 283.722656 94.800781 284.007812 94.324219 284.269531 93.835938 C 284.53125 93.351562 284.765625 92.851562 284.980469 92.339844 C 285.191406 91.828125 285.378906 91.308594 285.539062 90.777344 C 285.699219 90.246094 285.835938 89.710938 285.945312 89.167969 C 286.050781 88.625 286.132812 88.078125 286.1875 87.527344 C 286.242188 86.976562 286.269531 86.425781 286.269531 85.871094 Z M 286.269531 85.871094 " fill-opacity="1" fill-rule="nonzero"/><path fill="#0077b6" d="M 368.128906 26.292969 C 368.128906 25.738281 368.101562 25.183594 368.046875 24.632812 C 367.992188 24.082031 367.910156 23.535156 367.800781 22.992188 C 367.695312 22.449219 367.558594 21.910156 367.398438 21.382812 C 367.238281 20.851562 367.050781 20.332031 366.839844 19.820312 C 366.628906 19.304688 366.390625 18.804688 366.128906 18.316406 C 365.867188 17.828125 365.585938 17.355469 365.277344 16.894531 C 364.96875 16.433594 364.640625 15.988281 364.289062 15.5625 C 363.9375 15.132812 363.566406 14.722656 363.171875 14.332031 C 362.78125 13.9375 362.371094 13.566406 361.945312 13.214844 C 361.515625 12.863281 361.070312 12.535156 360.609375 12.226562 C 360.148438 11.917969 359.675781 11.636719 359.1875 11.375 C 358.699219 11.113281 358.199219 10.875 357.6875 10.664062 C 357.175781 10.453125 356.652344 10.265625 356.121094 10.105469 C 355.59375 9.945312 355.054688 9.808594 354.511719 9.703125 C 353.96875 9.59375 353.421875 9.511719 352.871094 9.457031 C 352.320312 9.402344 351.765625 9.375 351.210938 9.375 C 350.660156 9.375 350.105469 9.402344 349.554688 9.457031 C 349.003906 9.511719 348.457031 9.59375 347.914062 9.703125 C 347.371094 9.808594 346.832031 9.945312 346.300781 10.105469 C 345.773438 10.265625 345.25 10.453125 344.738281 10.664062 C 344.226562 10.875 343.726562 11.113281 343.238281 11.375 C 342.75 11.636719 342.277344 11.917969 341.816406 12.226562 C 341.355469 12.535156 340.910156 12.863281 340.480469 13.214844 C 340.054688 13.566406 339.644531 13.9375 339.25 14.332031 C 338.859375 14.722656 338.488281 15.132812 338.136719 15.5625 C 337.785156 15.988281 337.457031 16.433594 337.148438 16.894531 C 336.839844 17.355469 336.554688 17.828125 336.292969 18.316406 C 336.035156 18.804688 335.796875 19.304688 335.585938 19.820312 C 335.375 20.332031 335.1875 20.851562 335.027344 21.382812 C 334.863281 21.910156 334.730469 22.449219 334.621094 22.992188 C 334.515625 23.535156 334.433594 24.082031 334.378906 24.632812 C 334.324219 25.183594 334.296875 25.738281 334.296875 26.292969 C 334.296875 26.84375 334.324219 27.398438 334.378906 27.949219 C 334.433594 28.5 334.515625 29.046875 334.621094 29.589844 C 334.730469 30.136719 334.863281 30.671875 335.027344 31.203125 C 335.1875 31.730469 335.375 32.253906 335.585938 32.765625 C 335.796875 33.277344 336.035156 33.777344 336.292969 34.265625 C 336.554688 34.753906 336.839844 35.226562 337.148438 35.6875 C 337.457031 36.148438 337.785156 36.59375 338.136719 37.023438 C 338.488281 37.449219 338.859375 37.859375 339.25 38.253906 C 339.644531 38.644531 340.054688 39.015625 340.480469 39.367188 C 340.910156 39.71875 341.355469 40.046875 341.816406 40.355469 C 342.277344 40.664062 342.75 40.949219 343.238281 41.210938 C 343.726562 41.46875 344.226562 41.707031 344.738281 41.917969 C 345.25 42.132812 345.773438 42.316406 346.300781 42.476562 C 346.832031 42.640625 347.371094 42.773438 347.914062 42.882812 C 348.457031 42.988281 349.003906 43.070312 349.554688 43.125 C 350.105469 43.179688 350.660156 43.207031 351.210938 43.207031 C 351.765625 43.207031 352.320312 43.179688 352.871094 43.125 C 353.421875 43.070312 353.96875 42.988281 354.511719 42.882812 C 355.054688 42.773438 355.59375 42.640625 356.121094 42.476562 C 356.652344 42.316406 357.175781 42.132812 357.6875 41.917969 C 358.199219 41.707031 358.699219 41.46875 359.1875 41.210938 C 359.675781 40.949219 360.148438 40.664062 360.609375 40.355469 C 361.070312 40.046875 361.515625 39.71875 361.945312 39.367188 C 362.371094 39.015625 362.78125 38.644531 363.171875 38.253906 C 363.566406 37.859375 363.9375 37.449219 364.289062 37.023438 C 364.640625 36.59375 364.96875 36.148438 365.277344 35.6875 C 365.585938 35.226562 365.867188 34.753906 366.128906 34.265625 C 366.390625 33.777344 366.628906 33.277344 366.839844 32.765625 C 367.050781 32.253906 367.238281 31.730469 367.398438 31.203125 C 367.558594 30.671875 367.695312 30.136719 367.800781 29.589844 C 367.910156 29.046875 367.992188 28.5 368.046875 27.949219 C 368.101562 27.398438 368.128906 26.84375 368.128906 26.292969 Z M 368.128906 26.292969 " fill-opacity="1" fill-rule="nonzero"/></g></g></g></g></svg>